<?xml version="1.0" encoding="utf-8"?>
<!-- Generator: Adobe Illustrator 22.0.0, SVG Export Plug-In . SVG Version: 6.00 Build 0)  -->
<svg version="1.1" id="Layer_1" xmlns="http://www.w3.org/2000/svg" xmlns:xlink="http://www.w3.org/1999/xlink" x="0px" y="0px"
	 viewBox="0 0 241.6 52.5" style="enable-background:new 0 0 241.6 52.5;" xml:space="preserve">
<style type="text/css">
	.st0{fill:url(#SVGID_1_);}
</style>
<linearGradient id="SVGID_1_" gradientUnits="userSpaceOnUse" x1="0.5778" y1="25.989" x2="240.5296" y2="25.989">
	<stop  offset="0" style="stop-color:#003243"/>
	<stop  offset="1" style="stop-color:#3DBBD2"/>
</linearGradient>
<path class="st0" d="M5.8,13.1H11l6.4,16.5L30,13.1h5.6l-5.2,29.8h-6.2l3-17.4l-8.1,10.6h-5.2L9.5,25l-3.2,18H0.6L5.8,13.1z
	 M37.7,42.9h6.8l5.2-29.8h-6.8L37.7,42.9z M51.8,42.9h6.8l1.9-10.8h4L68,42.9h7.3L70.6,31c2.5-1,4.4-2.5,5.4-3.8
	c1-1.4,1.6-3.4,1.6-5.6c0-2.6-0.9-4.8-2.5-6.3c-1.6-1.4-4.2-2.2-7.9-2.2H57L51.8,42.9z M61.3,27.2l1.6-9.2h3.4c2,0,3.1,0.5,3.6,1.1
	c0.5,0.5,0.9,1.4,0.9,2.6c0,1.5-0.6,2.9-1.6,4c-1.3,1.2-3,1.5-5.3,1.5H61.3z M81.1,42.9h6.8l5.2-29.8h-6.8L81.1,42.9z M86.6,10.5
	l10.6-4.6l-2.6-4.7l-9.9,6.1L86.6,10.5z M92.2,42.9h6.8l3.6-7.5h9.7l1.2,7.5h7L115,13.1h-7.5L92.2,42.9z M105.1,30.5l4.9-10.4h0.1
	l1.5,10.4H105.1z M124.8,42.9h9.2c6,0,10.4-1.1,13.6-4.4c3.3-3.4,4.9-8.4,4.9-13.7c0-3.4-0.7-6.2-2.6-8.3c-2.5-2.6-6.7-3.4-11.1-3.4
	H130L124.8,42.9z M132.5,38l3.5-19.9h2.8c2.7,0,4.4,0.6,5.4,1.8c1,1.2,1.4,2.7,1.4,5c0,3.7-1.2,7.1-2.7,9.4
	c-1.9,2.8-4.4,3.7-8.1,3.7H132.5z M151.9,42.9h6.8l3.6-7.5h9.7l1.2,7.5h7l-5.6-29.8h-7.5L151.9,42.9z M164.7,30.5l4.9-10.4h0.1
	l1.5,10.4H164.7z M183.1,42.9h7.2l7.9-10.1l4,10.1h7.4l-6.4-15l12-14.8h-7.3l-7.4,9.4l-3.6-9.4h-7.4l6.1,14.3L183.1,42.9z
	 M210.3,50.7h29l1.2-6.6h-29L210.3,50.7z"/>
</svg>
